<svg xmlns="http://www.w3.org/2000/svg" viewBox="0 0 419.53 297.64"><defs><style>.cls-1,.cls-2{fill:#333;}.cls-2{font-size:54.47px;font-family:BebasNeue, Bebas Neue;letter-spacing:0.22em;}</style></defs><g id="Logo_3" data-name="Logo 3"><g id="Background-2" data-name="Background"><g id="Layer0_0_FILL" data-name="Layer0 0 FILL"><path class="cls-1" d="M332.46,52.86l1.5-1.43c.27-.27.38-.49.31-.66s-.22-.25-.46-.24a1.08,1.08,0,0,0-.61.2,13.15,13.15,0,0,1-5,1.56,12.74,12.74,0,0,1-5.27-.5,19.89,19.89,0,0,1-2.1-.78c-1.1-.48-1.8-.77-2.11-.88A36,36,0,0,0,313,48.54q-5.18-1.08-5.86-1.24c-2.3-.67-4-1.16-5.2-1.49a29.3,29.3,0,0,0-5.26-1.12c-1.19-.06-2.08-.11-2.68-.17A9.35,9.35,0,0,1,291.4,44a9.71,9.71,0,0,1-1.23-.67c-.54-.32-.94-.57-1.21-.74a29.24,29.24,0,0,0-9.36-3.92,12.11,12.11,0,0,1,5.25.3q1.77.43,5.25,1.41c.49.11,1.13.23,1.91.35l1.87.3c1.2.2,3.11.67,5.75,1.38l15.62,4.32a36.59,36.59,0,0,1,3.9,1.29,9.38,9.38,0,0,1,3.29,2.25c.43.46.76.62,1,.48a.5.5,0,0,0,.26-.49,1.25,1.25,0,0,0-.2-.63L323.2,49a.89.89,0,0,1-.05-.59l3.92-1.65c.4-.18.59-.4.55-.64s-.37-.41-.95-.31a7.22,7.22,0,0,1-3.17-.08,7.36,7.36,0,0,1-1.93-.78,1.09,1.09,0,0,0,0-.36,1.87,1.87,0,0,0-.41-.57l2.91-1.16c.47-.18.71-.41.73-.69s-.33-.62-1-.72a21.66,21.66,0,0,1-5.43-2A27.81,27.81,0,0,0,313,37.35c-.51-.1-.89-.18-1.14-.25a7.9,7.9,0,0,1-1.1-.36,9.4,9.4,0,0,1-.87-.52l-.86-.63a12.26,12.26,0,0,0-3.06-1.69.88.88,0,0,0,.23-.56.65.65,0,0,0-.15-.58,1.84,1.84,0,0,0-.9-.44,48.17,48.17,0,0,1-8.59-3,.53.53,0,0,0-.15-.46,1.62,1.62,0,0,0-.82-.49,1,1,0,0,1,.51-.27l.59-.1a1.47,1.47,0,0,0,.58-.19.56.56,0,0,0,.33-.45.72.72,0,0,0-.12-.43.85.85,0,0,0-.37-.28,2.57,2.57,0,0,0-.91-.11,31,31,0,0,1-4.08-.16,9.39,9.39,0,0,1-2.53-.58c-.23-.12-.51-.29-.84-.49-.5-.37-.76-.55-.79-.56a13.21,13.21,0,0,0-2.06-1c-.94-.35-1.65-.62-2.12-.82q-2.08-1-3.18-1.38a29.38,29.38,0,0,1-3.17-1.27,20.83,20.83,0,0,1-2.14-1.35c-1.16-.83-1.86-1.32-2.1-1.48A15.44,15.44,0,0,0,265.69,15l.57-.35a1.51,1.51,0,0,0,.58-.48.48.48,0,0,0,.06-.59c-.09-.16-.34-.26-.74-.28a19.66,19.66,0,0,1-2.89-.33,6.25,6.25,0,0,1-2-.56l-1.19-.64A27.46,27.46,0,0,0,255.52,10q-2.4-.66-3.24-.84c-1.57-.21-2.74-.38-3.52-.51a11,11,0,0,1-3.37-1,1.38,1.38,0,0,1,.34-.64,1.56,1.56,0,0,1,.63-.41c.15,0,.39-.13.7-.21s.39-.39.28-.63-.29-.22-.6-.25a19.52,19.52,0,0,0-8.1,1.17,1.23,1.23,0,0,0,0-.66,1.12,1.12,0,0,0-.46-.79,1.57,1.57,0,0,0-1.21.07,20.85,20.85,0,0,1-6,1.09,21.69,21.69,0,0,1-6.12-.66c.09-.1.27-.28.56-.54a2.31,2.31,0,0,0,.52-.56,1,1,0,0,0,.14-.74c-.07-.31-.23-.48-.48-.5s-.44.08-.81.35a5,5,0,0,1-1.72.77,5.06,5.06,0,0,1-1.9,0,6.82,6.82,0,0,1,.66-.67c.29-.26.4-.49.33-.71s-.4-.46-.94-.49q-14.53-.95-31.88,5.16a29.11,29.11,0,0,1-3.16.94A6.52,6.52,0,0,1,183,8.69a1.18,1.18,0,0,0-1,0,.74.74,0,0,0-.28.71,6.76,6.76,0,0,0,.08.92,1.36,1.36,0,0,1-.95,1.32,1.38,1.38,0,0,1-1.62-.19c-.15-.18-.27-.32-.36-.41a.76.76,0,0,0-.44-.26.57.57,0,0,0-.56.21.92.92,0,0,0-.25.63,2.2,2.2,0,0,0,.59,1.15,10.9,10.9,0,0,0,3.62,3,7.2,7.2,0,0,0,3.59.91,67.9,67.9,0,0,0-9.08,1.48q-3.41.78-9.76,2.53c-1.54.43-2.66.75-3.35,1A22,22,0,0,0,160,23q-1,.53-3.21,2-4.06,2.74-8.18,5.07A22.37,22.37,0,0,1,144.57,32a7.82,7.82,0,0,1-4.29.28,2.74,2.74,0,0,0-.59-.08.56.56,0,0,0-.49.19,1.18,1.18,0,0,0-.14.79,8.9,8.9,0,0,0,.35,1.55,3,3,0,0,0,.44.89,23.55,23.55,0,0,0-3.7,1.61,8.47,8.47,0,0,0-1.1.71,13.84,13.84,0,0,0-1.38,1.21,11.71,11.71,0,0,1-1.37,1.22c-.44.28-.77.49-1,.64a2.34,2.34,0,0,0-.74.83,5.06,5.06,0,0,1-.28.57,1.6,1.6,0,0,1-1.14.31h-1.89c-.6,0-1-.19-1.09-.48a1.34,1.34,0,0,1-.05-.43.89.89,0,0,0-.08-.44.47.47,0,0,0-.36-.23.71.71,0,0,0-.45.06,2,2,0,0,0-.67.65,6.38,6.38,0,0,0-.92,1.84,2.13,2.13,0,0,0,.33,2,1.19,1.19,0,0,0,.15.18,33.26,33.26,0,0,0-7.6,1.56q-5.34,1.88-8,2.76a7.53,7.53,0,0,1-2,.38,2.61,2.61,0,0,0-1,.12.84.84,0,0,0-.44.8,1.21,1.21,0,0,0,.38.94,3.15,3.15,0,0,0,1.9.68,13.39,13.39,0,0,0-4.22,2,14.31,14.31,0,0,0-3.41,3.26c-.33.47-.59.82-.77,1.05a7.67,7.67,0,0,1-.84.94,2.61,2.61,0,0,0-.71.84.63.63,0,0,0,.08.53.38.38,0,0,0,.43.19c-1.09.39-1.86.38-2.34,0a2.39,2.39,0,0,0-.28-.28,1.22,1.22,0,0,0-.32-.22.51.51,0,0,0-.46.1.78.78,0,0,0-.28.41,2,2,0,0,0,.09,1,10.27,10.27,0,0,1-5.49-.41,1.62,1.62,0,0,0-1.14-.12,1.36,1.36,0,0,0-.59,1.11,8.15,8.15,0,0,0,0,1.86,3,3,0,0,0-.61.13l-.89.26a7,7,0,0,1-3,.23,5.06,5.06,0,0,1-2.73-1.17q-.54-.52-.87-.33a.72.72,0,0,0-.23.37,2.38,2.38,0,0,0,0,1.54,5.59,5.59,0,0,0,.26.63,1.82,1.82,0,0,0-.86.06l-1.41.45-.81.24a3.79,3.79,0,0,0-.75.35,5.42,5.42,0,0,0-.88.77,1.26,1.26,0,0,0-.33.5.6.6,0,0,0,.27.51,1,1,0,0,0,.59.19l.64-.06a2.6,2.6,0,0,1,.56,0l-2,.51a7.9,7.9,0,0,1-1.71.33,11.05,11.05,0,0,1-1.17,0c-.54,0-.93-.07-1.15-.07a7.85,7.85,0,0,0-2.78.68,1.5,1.5,0,0,0-.92.72.71.71,0,0,0,.07.58.8.8,0,0,0,.16.19.4.4,0,0,0-.08.23,1,1,0,0,0,.15.5,11.76,11.76,0,0,1,.62,1.26,4.59,4.59,0,0,1-1.77.13l-.5-1.61a.45.45,0,0,0-.26-.34q-.21-.07-.33.18l-.16.38a2.52,2.52,0,0,1-1,1.08,2.43,2.43,0,0,0-1,1.1.94.94,0,0,0,.18.94l-.39-.06-1.77-.15a4.34,4.34,0,0,0-1.25.06,5.41,5.41,0,0,0-1,.58,8.68,8.68,0,0,1-1.7.84c-.29.11-.46.25-.51.41a.36.36,0,0,0,.15.43,1.39,1.39,0,0,0,.22.15l-.58.13c-.57.07-1,.15-1.28.21a8.23,8.23,0,0,0-1.47.46c-.62.29-1.1.49-1.43.61l-1.2.44A8,8,0,0,0,48.19,82a6,6,0,0,0-.82.73,2.38,2.38,0,0,0-.71,1.77.79.79,0,0,0,.2.6c.15.14.46.17.92.08l.77-.12a2.37,2.37,0,0,0-.26.55,2.41,2.41,0,0,0-.07.7v1.42a1.79,1.79,0,0,0,.15.85l.31.51a.57.57,0,0,1-.18.43,2.37,2.37,0,0,1-.36.36,2.08,2.08,0,0,0-.36.51c-.08.12-.19.3-.33.55a5.59,5.59,0,0,1-.89,1l-1.05.89a3.82,3.82,0,0,0-1.06,1.53,3.9,3.9,0,0,0-.08,1.21.9.9,0,0,0,.1.48.53.53,0,0,0,.53.23,1.51,1.51,0,0,0,.57-.15,9.54,9.54,0,0,0,1.58-.77.36.36,0,0,1,.08.15A5.53,5.53,0,0,0,50.43,98c.47.15.77.09.9-.17a.63.63,0,0,0,0-.54L51,96.69c-.09-.38.13-.81.66-1.27l1.2-1.08.23.14a4,4,0,0,0,1,.14,5.87,5.87,0,0,1,.8.16,2.57,2.57,0,0,0,.79.12,3.47,3.47,0,0,0,1.65-.65,5,5,0,0,0,1.5-1.18,4.47,4.47,0,0,0,.65-1.32c.13-.37.26-.68.37-.92a31.78,31.78,0,0,0,3,2.06q4.65,2.88,4.82,3A54.59,54.59,0,0,1,73,100.42c2.61,2.44,4.35,4,5.22,4.73A10.63,10.63,0,0,0,81,106.92a7.46,7.46,0,0,0,2.6.46q.92,0,2.7-.15,7-.75,13.65-1.84a5.46,5.46,0,0,1,3,1.5,9,9,0,0,1,1.48,1.94q.41.72,1.2,2.19a22.57,22.57,0,0,0,2.48,3.49c.63.76,1.59,1.83,2.9,3.19a33.43,33.43,0,0,0,4.14,3.88,19.48,19.48,0,0,0,4.4,2.24,36.24,36.24,0,0,0,4.78,1.38q4.88,1.06,13.54,2,9.74,1.08,13.59,1.78c1.21.23,3,.59,5.36,1.08l2.13.4a24.19,24.19,0,0,0,4,16.33q5.37,8.21,11.3,16c.16.26.3.51.43.75a27.06,27.06,0,0,1,2.4,5.5,40.58,40.58,0,0,1,1.25,7.75,92.89,92.89,0,0,1,.48,10.05,46.68,46.68,0,0,1-2.81,14.7,24.43,24.43,0,0,1-2.14,4.61,29.13,29.13,0,0,1-2.43,3.27q-3.85,4.65-8,8.84l-1.62,2.25a128.87,128.87,0,0,0,31.8,6,66.18,66.18,0,0,0,34.81-8.22,1,1,0,0,0,0-.17c-.1-.6-.74-1-1.91-1.18a18.34,18.34,0,0,1-4.49-1.48,3.93,3.93,0,0,0-.43-.18,1.24,1.24,0,0,0,0-.27c-.1-1-.2-2-.31-3a41.84,41.84,0,0,0-.65-4.49,115.64,115.64,0,0,0-7.1-21.08,147.48,147.48,0,0,0-9.22-17.35l.17-.5a21.75,21.75,0,0,1,8.19-10.05,42.43,42.43,0,0,1,5.64-3.31c1.59-.78,3.61-1.67,6-2.66a271.41,271.41,0,0,1,36.56-11.75q10.81-2.67,13.37-3.47a50,50,0,0,0,12.5-5.52,1.38,1.38,0,0,0,.65-.75c.06-.37-.25-.75-.93-1.13a14.76,14.76,0,0,1-5.57-4.52,8.45,8.45,0,0,1-1.38-3.39,6.06,6.06,0,0,1,.42-3.51c.29-.64.34-1.09.17-1.33a3.43,3.43,0,0,0-.66-.43,2.25,2.25,0,0,1-.94-.92,3.24,3.24,0,0,1-.36-1.23,27.79,27.79,0,0,0,5-1.2q1.64-.56,4.92-1.86c1.83-.75,3.16-1.31,4-1.7a32.31,32.31,0,0,0,3.84-2l.62-.38q5.78-1.12,11.65-1.87l2.1,0a127.42,127.42,0,0,1,15.88.86q7.29,1.22,14.61,1.79a54.11,54.11,0,0,0,19.87-2.66c1.23-.39,2.44-.82,3.64-1.29.27-.14.53-.28.77-.43a26.8,26.8,0,0,0,5.26-4.45l0,.08a3,3,0,0,0,0,2.55,2,2,0,0,0,.94.9,1.44,1.44,0,0,0,1.23,0,11.74,11.74,0,0,0,1.07,3.45c.28.55.6.82,1,.82.21,0,.47-.12.8-.42a8.14,8.14,0,0,0,1.35-1.45,3,3,0,0,0,.63-1.78,3.76,3.76,0,0,0-.17-.87q-.22-.81-.24-.9a1.77,1.77,0,0,1,.39-1.75,4.05,4.05,0,0,0,2.14,2.19,4,4,0,0,0,3,.2l.71-.28a3.7,3.7,0,0,1,.69-.23,1.34,1.34,0,0,1,1.42.29,4.72,4.72,0,0,1,.52.84.81.81,0,0,0,.4.3.47.47,0,0,0,.46,0,.84.84,0,0,0,.21-.53,6.68,6.68,0,0,0-.26-3.11l3.7-1.33c.46-.15.69-.37.67-.64s-.31-.44-.83-.46a31.22,31.22,0,0,1-3.43-.5,6.94,6.94,0,0,1-4.14-2,6.38,6.38,0,0,1-1.2-3.15,24.46,24.46,0,0,0-.46-3.51,33.55,33.55,0,0,0,5.1-1.23c.54-.17.8-.42.75-.76s-.38-.49-1-.49a17.1,17.1,0,0,1-3.16-.23,18.78,18.78,0,0,1-2.83-1l-4-1.59c-1.25-.49-2.23-.9-2.93-1.25A17.45,17.45,0,0,1,370.13,80a4.43,4.43,0,0,1-1.95-2.8.52.52,0,0,1,0-.11,5.78,5.78,0,0,0,1.5.21c.47,0,1.18,0,2.12,0a3.69,3.69,0,0,1,1.91.6c.43.3.69.48.8.54a.67.67,0,0,0,.79-.07c.22-.18.27-.53.13-1a10.17,10.17,0,0,0-3.29-5.24,1.17,1.17,0,0,1,.58-.37,6.5,6.5,0,0,1,.66-.23,1.14,1.14,0,0,0,.54-.48.52.52,0,0,0,0-.61c-.14-.19-.48-.24-1-.15a10.81,10.81,0,0,1-5.33-.34l4.41-1.17a.83.83,0,0,0,.48-.25q.21-.3-.15-.57a1.6,1.6,0,0,0-.75-.33,19.73,19.73,0,0,1-7-2.49c-.49-.28-1.13-.69-1.9-1.23-.94-.65-1.57-1.08-1.91-1.28A52.12,52.12,0,0,0,355,59.76c-4.78-2.15-8.44-3.67-11-4.54a43,43,0,0,0-11.55-2.36m-3.55,14.83q-.23.38-.48.72c-.15.22-.47.62-.94,1.2s-.71.9-.92,1.22-.48.83-.85,1.56a11.83,11.83,0,0,1-.88,1.56c-.47.63-.81,1.1-1,1.42l-.17.25-8.37-.53a1.33,1.33,0,0,0-.38-1.23,3.23,3.23,0,0,0-1.18-.83c-.49-.21-1.43-.52-2.83-1A13.85,13.85,0,0,1,308.1,71c-.31-.19-.76-.49-1.37-.92s-1.06-.74-1.36-.92a16,16,0,0,0-3.89-1.33,24.86,24.86,0,0,1-4-1.14,19.87,19.87,0,0,1,3.69-.43c.51,0,1.3,0,2.35.1l4.34.23c.74,0,1.28.09,1.63.15a5,5,0,0,1,1.55.49,8.51,8.51,0,0,1,.79.51,4.72,4.72,0,0,0,.8.45,3.41,3.41,0,0,0,1.4.21,11.79,11.79,0,0,0,1.47-.18,6.12,6.12,0,0,0,2.25-.74,3.48,3.48,0,0,0,.54-.38,2.81,2.81,0,0,1,.58-.31,4.34,4.34,0,0,1,1.28,0,5.57,5.57,0,0,0,2.68-.58A5.64,5.64,0,0,0,325,64.36a1.39,1.39,0,0,1,.74.78c.12.23.28.58.49,1.07A3.06,3.06,0,0,0,328,67.49l.89.2m3.11.79c.51.17,1.06.39,1.63.64a6.35,6.35,0,0,1,2.25,1.54q1.19,1.43,1,4.56c-.08,1.39-.12,2.2-.12,2.42a6.94,6.94,0,0,0,.42,2.34,10.76,10.76,0,0,1-4.41-.78c-1.9-.79-3.33-1.35-4.3-1.68a7.35,7.35,0,0,1-.74-.26,1.92,1.92,0,0,1-.46-.3l1.14-2.15a7.33,7.33,0,0,0,.47-1l.33-.9a16.22,16.22,0,0,1,1.45-2.57l.71-1a9.88,9.88,0,0,1,.61-.85m-3.64,18.77A5.1,5.1,0,0,1,330,87a5.69,5.69,0,0,1,1.53.31c.33.11.81.29,1.45.54a12.6,12.6,0,0,0,3.64.78,1.55,1.55,0,0,1,1,.28,1,1,0,0,1,.21.46l.07.49a4.07,4.07,0,0,0,4.49,3.45q.51-.06,1.56-.24l.43,0a5.36,5.36,0,0,0,.43.33,9.8,9.8,0,0,1,1.16.94,11.37,11.37,0,0,1,.6,1.09,10.05,10.05,0,0,1,.44,1l0,.06,0,.17h0v0l0,0h0l.21.73a3.23,3.23,0,0,1,0,1.64c-.05.16-.12.39-.23.71a.94.94,0,0,0,.05.69,1.08,1.08,0,0,0,.77.46,4.37,4.37,0,0,0,1.66,0,20.19,20.19,0,0,0,3-.66l5.76-1.55c.62-.17,1.12-.31,1.5-.44.16.07.41.18.72.34a7.11,7.11,0,0,0,2.78.65,19.12,19.12,0,0,0,1.92,0,9.85,9.85,0,0,1-1.94,1.71c-.87.52-1.75,1-2.63,1.42a37.34,37.34,0,0,1-9.19,2.8q-3.84-.12-5.86-.22a49.51,49.51,0,0,1-6.78-.71c-.69-.12-2.14-.44-4.34-1a78.51,78.51,0,0,0-16.83-2,68.66,68.66,0,0,0-16.09,1.71l.3-.44q.8-.74,1.59-1.5Q305,99.47,308,96.33c.18-.19.37-.36.55-.53a36.68,36.68,0,0,1,5.93-3c1.27-.49,2-.81,2.27-.94a6.84,6.84,0,0,0,2-1.35A11.68,11.68,0,0,0,321,86.44a18,18,0,0,1,.75-1.78,1.08,1.08,0,0,0,.38.14,8.62,8.62,0,0,0,1.05.11,5.46,5.46,0,0,1,1.07.18,2.06,2.06,0,0,1,1,.5,1.43,1.43,0,0,1,.52.87,6,6,0,0,1,0,.92.69.69,0,0,0,.36.64,1.16,1.16,0,0,0,.71-.1c.84-.36,1.38-.59,1.61-.67M234.51,60.17,233,59.48a10.06,10.06,0,0,1-1.35-.73c.5-.41,1-.82,1.61-1.21.86-.59,2.06-1.31,3.61-2.18q3.06-1.63,6.15-3.17c.78,0,1.27,0,1.46,0a22.5,22.5,0,0,1,4.89.64,12.87,12.87,0,0,1,4.51,2.07A8.83,8.83,0,0,1,257,58.65c.11.27.24.61.4,1a7.2,7.2,0,0,0-.88-.61,7.8,7.8,0,0,0-3.34-1.18,10.86,10.86,0,0,0-4.47.51,37.63,37.63,0,0,0-4.26,1.77c-1.8.86-2.73,1.83-2.8,2.9a5.67,5.67,0,0,1-3.67-.84,37.38,37.38,0,0,0-3.47-2.07m-5.8-3.41a8.11,8.11,0,0,0-2.42-.21,19.66,19.66,0,0,0-7.93,1.94l-1.81.95a14.73,14.73,0,0,1-1.86.83,19.43,19.43,0,0,1-3.82.9l-3.55.63c.08-.15.14-.26.18-.35q.13-.44.18-.66l.28-.74a8.74,8.74,0,0,0,.25-1.23,18.92,18.92,0,0,1,1.36-4c.63-.13,1.19-.27,1.7-.41A68.58,68.58,0,0,0,217.88,52a30.84,30.84,0,0,0,3-1.29,9.43,9.43,0,0,0,2.48-1.82.7.7,0,0,0-.13.6,1.2,1.2,0,0,0,.35.7,3.07,3.07,0,0,0,1.41.55,71.16,71.16,0,0,0,10,1.22,59.56,59.56,0,0,0-6.23,4.77M264.55,77.1a2.74,2.74,0,0,1,1-1.32,10.1,10.1,0,0,1,1.53-1,3.09,3.09,0,0,0,.06,1.29,2.19,2.19,0,0,0,.61,1.07,2.76,2.76,0,0,0,.84.47,6.7,6.7,0,0,0,3.77.09,2.87,2.87,0,0,0,.95-.38.43.43,0,0,0,.2-.32,1.41,1.41,0,0,0-.18-.29,1,1,0,0,1-.2-.87,2,2,0,0,1,.4-.81,4.23,4.23,0,0,1,.69-.71,5.42,5.42,0,0,1,2.43.13,5.3,5.3,0,0,0,1.57.27,2.27,2.27,0,0,0,.67-.15c.14,0,.36-.12.64-.23a9,9,0,0,1,2.42-.41l.56,0L283,75.2l.46.73.23.21a8.29,8.29,0,0,1-.75.69c-.69.55-1.74,1.31-3.13,2.29l-1.05.71-2.86,1.53a17.69,17.69,0,0,1-3.2.85,40.41,40.41,0,0,1-6.38.56c-2.87,0-5,.06-6.46.1a31.46,31.46,0,0,0-4.23.38c-.31,0-.62.13-.92.21a36.38,36.38,0,0,0,.51-8.4l.38,0a12.27,12.27,0,0,1,2.61.12,5.63,5.63,0,0,1,2.4.9,12.53,12.53,0,0,1,1.5,1.33,8.55,8.55,0,0,0,1.3,1.06h0a1,1,0,0,0,.57.31,5.29,5.29,0,0,0,1.27.25.5.5,0,0,0,.3,0,.21.21,0,0,0,.14-.21.25.25,0,0,0-.16-.22l-.33-.09a1,1,0,0,1-.58-.53,1.28,1.28,0,0,1-.08-.82m-15.48-.22c1.22-.3,2.12-.54,2.72-.7a23.93,23.93,0,0,1-3,9.83,36.29,36.29,0,0,1-18.27,16.21c-1,.48-1.93.87-2.74,1.18-.66.22-1.59.51-2.78.86a12.58,12.58,0,0,0-.64-1.47,14,14,0,0,0-2.6-3.35,22.85,22.85,0,0,0-3.31-2.6c-.86-.55-2.08-1.27-3.67-2.17l-7.4-4.23c.15-.1.3-.2.44-.31q5.49-4,10.6-8.39h0a24.78,24.78,0,0,0,9.59-.65c.37-.07.76-.16,1.19-.26.93-.25,1.47-.41,1.62-.46a13.94,13.94,0,0,0,2-1l1.15-.69v0a12.1,12.1,0,0,0,1.1-.64,24,24,0,0,0,3.08,1.1,8.1,8.1,0,0,0,3.16,1.22,21.8,21.8,0,0,0,4.34.21c1,0,1.57-.23,1.82-.7a1.23,1.23,0,0,0,.1-.89l-.24-.94c0-.19-.09-.39-.12-.58a6.4,6.4,0,0,1,.68-.27,7.62,7.62,0,0,1,1.13-.32m4.26,11.6A18.55,18.55,0,0,1,257.44,87a29.76,29.76,0,0,1,3.84-.35q1.44,0,3.27.15a39.27,39.27,0,0,0,6,.13,24.84,24.84,0,0,0,3-.53,27.45,27.45,0,0,0,6.72-2.17c.58-.29,1.46-.82,2.64-1.58a17.18,17.18,0,0,0,1.6-1.1,24.24,24.24,0,0,0,2-2,9.22,9.22,0,0,0,3.23,1.5,11,11,0,0,0,4.13.28.37.37,0,0,0,.28-.15s0-.13-.05-.26a2.66,2.66,0,0,1-.07-1.22,4.11,4.11,0,0,1,.13-.75q1.11.57,1.86.9a18.57,18.57,0,0,0,3.19,1.12l.78.41a8.16,8.16,0,0,1-.86,2.07,33.77,33.77,0,0,1-8.06,9.79c-.57.48-1.41,1.15-2.52,2s-2,1.55-2.55,2a88.31,88.31,0,0,0-7.25,7.08,20.46,20.46,0,0,0-2.4,2.93,13.88,13.88,0,0,0-1.4,3.1,27.28,27.28,0,0,0-1.42,7.18,21.82,21.82,0,0,0,.83,7.24,3.28,3.28,0,0,1,.16,1.81,3,3,0,0,1-1.05,1.18L269.16,131a33.94,33.94,0,0,1-3.62,2.46,19,19,0,0,1-3.32,1.47c-.88.29-2,.63-3.49,1q-5.43,1.38-15.25,3.37-10.81,2.17-15.28,3.24a128,128,0,0,0-15,4.53c-2.41.92-4.7,1.92-6.85,3a42,42,0,0,0,4.58-9.31,27.59,27.59,0,0,0,1.07-4.08,22.26,22.26,0,0,0-.56-9.34c.46-.24,1-.51,1.69-.81,1.16-.49,2-.86,2.4-1.1a13.14,13.14,0,0,0,2.47-1.84c.52-.47,1.24-1.22,2.17-2.22a12.21,12.21,0,0,0,1.91-2.44,1,1,0,0,0,.13-.23,9.23,9.23,0,0,0,.79-.92,16.76,16.76,0,0,0,1.75-3.11,30.84,30.84,0,0,0,1.41-3.92l.76-.18c1.27-.31,2.47-.63,3.58-.95a32.28,32.28,0,0,0,17.71-11.86,34.32,34.32,0,0,0,5.11-9.28M224.25,77l-.53-.07c1.36-1.27,2.66-2.54,3.88-3.8a17.49,17.49,0,0,0,2.14,1.56c.22.15.56.36,1,.63a1,1,0,0,1,.15.1,9.59,9.59,0,0,1-2.33,1.1,12.15,12.15,0,0,1-1.42.33,11.83,11.83,0,0,1-1.41.18h-1.1l-.38,0m84.26,6.41a.8.8,0,0,0,.72-.1c.29-.18.38-.58.28-1.2s0-1,.28-1.21a.56.56,0,0,0,.13.7l.58.51a8.58,8.58,0,0,1,.64.79,3.81,3.81,0,0,0,1.55.76,29.7,29.7,0,0,0,3.37.87c.35.06.73.1,1.13.13a2.35,2.35,0,0,1-.37,1,4.52,4.52,0,0,1-1.3,1.07,13.16,13.16,0,0,1-3.75,1.63c-.29.06-.65.12-1.07.18l-1.07.1c-.78.12-1.68.3-2.68.54l-3.08.71q-2.43.53-4.05,1.05a23.89,23.89,0,0,0,1.83-3.11c.4-.79.92-1.9,1.55-3.34a8.86,8.86,0,0,0,.59-1.73,9.74,9.74,0,0,0,2.2.17l.07,0,.11,0a9.23,9.23,0,0,0,2.34.49M291.61,99.5a40.05,40.05,0,0,1,3.84-1.56l4.95-1.76a15.22,15.22,0,0,1,3.49-.92c.18.32,0,.63-.63.94a17.53,17.53,0,0,0-3.91,3.15q-2.3,2.55-3.54,3.71a23.78,23.78,0,0,1-15,6.38l.25-.28c.52-.53,1.42-1.33,2.68-2.42q4-3.46,7.89-7.24M209.67,10.72a12,12,0,0,1,1.83-.27,5,5,0,0,1,3.19.55,1.54,1.54,0,0,1,.54.54.7.7,0,0,1,0,.74,1.74,1.74,0,0,1-.26.28.63.63,0,0,0-.23.3l-2.68.65c-1.86.47-3.28.8-4.28,1l-1.53.26-1.53.25c-1.16.18-2.46.33-3.88.48a2.79,2.79,0,0,0-1.15-1,10.67,10.67,0,0,0-1.5-.54c.33,0,1-.05,2.1,0a10.57,10.57,0,0,0,2.11-.17,9.58,9.58,0,0,0,1.71-.56,17.78,17.78,0,0,0,2-.79c.39-.18,1-.49,1.78-.92a10,10,0,0,1,1.82-.72M195,13.63a5.6,5.6,0,0,1,.78-.41,1,1,0,0,1,.69-.13.9.9,0,0,0,.1.57l-1.11.07a.8.8,0,0,1-.46-.1m2.55,42.77c2.66-.25,5-.51,7-.79l.07.74c.06.7.1,2,.1,3.82a4.39,4.39,0,0,1-.22,1.45l-.44.74c-1.56.26-2.78.45-3.67.56a21.81,21.81,0,0,1-4,.08,4,4,0,0,0-1.61.1,1.26,1.26,0,0,0-.58.56.71.71,0,0,0,0,.72l-17.6,1h-.15a7,7,0,0,0,1.75-1.78c.83-1.17,1.34-1.86,1.53-2A11.55,11.55,0,0,1,183.94,59a56.32,56.32,0,0,1,13.57-2.58m-77.43.35c2.46-.74,4.4-1.26,5.84-1.57,1-.22,2.65-.52,5-.9a28.16,28.16,0,0,0,3.47,3.34c.35.28.84.66,1.46,1.12q-4.44-.18-7.5-.05c-1.94.09-5.35.38-10.22.89-4.33.43-7.73.66-10.21.67l12.14-3.5m18.69-4.1q1-.24,1.68-.36a13.13,13.13,0,0,1,3-.13c.43.9.76,1.65,1,2.25a25.14,25.14,0,0,1,1.35,4c.09.33.16.66.22,1l-1.47-.11a11.27,11.27,0,0,0-1.35-.78l-.44-.21-.28-.25a13.38,13.38,0,0,0-2.06-1.4l-2.15-1.31c-.12-.07-.81-.57-2.08-1.5-.2-.15-.4-.29-.59-.41.56-.12,1.07-.24,1.52-.36l1.66-.43m9.29,2.71c-.17-.38-.63-1.21-1.36-2.48l0,0a8.8,8.8,0,0,1,1.35.57,7.46,7.46,0,0,1,2.31,1.71,9.48,9.48,0,0,1,1.31,2.6,9.26,9.26,0,0,1,.5,1.43,3.7,3.7,0,0,1,.11,1.49,20.53,20.53,0,0,0-3-.76c0-.34,0-.63-.08-.87a19.32,19.32,0,0,0-.53-2,14.32,14.32,0,0,0-.59-1.7m3.84,29.5A.53.53,0,0,0,152,85l0,0,0-.08m.21.33h.15a17,17,0,0,0,1.08,2.32q1.44,2.61,5.28,2.29c.12,0,.18-.08.18-.17s-.05-.15-.18-.23a4.43,4.43,0,0,1-.46-.29A3.41,3.41,0,0,1,156.72,87l.54-.36a8.77,8.77,0,0,1,1.73-.84l.54-.12a4.09,4.09,0,0,0,2.4.74c.46,0,.76-.09.89-.29a.75.75,0,0,0-.12-.77.41.41,0,0,0,0-.09l.63-.08,1.76-.3,1.46-.27A8.47,8.47,0,0,0,173,78.33l.06,0a25.27,25.27,0,0,1,2.09,1.5L179,82.8A19.71,19.71,0,0,1,181,84.58a33.31,33.31,0,0,1,2.39,2.8,7.15,7.15,0,0,0,2.78,2.17s0,0,0,0v0a1.85,1.85,0,0,0,.2.61,7.23,7.23,0,0,1,.23,1.54,22.16,22.16,0,0,0,1,4.5q-4.81,2.9-9.51,5.92c-1.42.16-3,.36-4.64.59q-7.51,1-9.07,1.18c-1.34.15-2.64.25-3.89.32l-2.7,0a25,25,0,0,1-15.65-4.21,14.9,14.9,0,0,1-1.48-1.55,26,26,0,0,1-1.59-2.07l-3.43-4.61a3.33,3.33,0,0,0,.58.1,9,9,0,0,0,3.39-.28,9.34,9.34,0,0,0,3.08-1.48l.11-.1.12.12a5,5,0,0,0,2.45,1.15,16.24,16.24,0,0,0,2.73.18,4.08,4.08,0,0,0,1.25-.15c.21-.06.32-.16.33-.29a.23.23,0,0,0-.05-.15l-1-1.07c-.6-.64-.66-1.55-.18-2.75s1.66-1.78,3.65-1.94M130.79,70.8c.68.58,1.09.92,1.23,1a4.13,4.13,0,0,0,1.42.74,11,11,0,0,1-3.62-.59c-1.57-.55-2.75-.94-3.56-1.18a20.77,20.77,0,0,0-6.72-.88l-3.72.32c-1,.06-2.39.11-4.31.14-.69,0-1.18,0-1.45,0a4.41,4.41,0,0,1-1.43-.29l2.11-2.27a12.87,12.87,0,0,1,1.94-1.8,13.76,13.76,0,0,1,3.66-1.5,8,8,0,0,1,3-.42.33.33,0,0,0-.17.29.54.54,0,0,0,.08.38,1.66,1.66,0,0,0,.66.41q2.28.93,4.26,1.83a28.7,28.7,0,0,1,6.65,3.82m-15,16.76h.56l0,.18v0a3.27,3.27,0,0,0-.12.39,1.37,1.37,0,0,1-.08.31s0,0,0,0l-.17.29a2.24,2.24,0,0,1-.26.35,8.61,8.61,0,0,1-.74.74,2.5,2.5,0,0,1-.4.29,1.3,1.3,0,0,1-.36.2l-.44.18a1.88,1.88,0,0,0-.45.22c-.13.11-.18.21-.16.29s.08.12.18.17a3.71,3.71,0,0,0,1.45.49c.28.07.57.12.85.17a6.35,6.35,0,0,0,1.1,0,4.54,4.54,0,0,0,.51-.09h.4l.13,0a5,5,0,0,0,1,1.63c.12.15.25.29.38.43a85.56,85.56,0,0,1-8.89-2.78c-2.21-.88-3.84-1.5-4.87-1.85s-1.53-.51-1.51-.52.67-.39,1.69-1a4.88,4.88,0,0,1,1.8-.72,7.12,7.12,0,0,1,1.58.07,57.54,57.54,0,0,0,6.87.49m7.18,5.87a10.3,10.3,0,0,1,1.79-.9,1.42,1.42,0,0,0,.33.23c.81.34,1.42.58,1.84.72a7.3,7.3,0,0,0,1.91.43c.26,0,.55,0,.85,0a4.39,4.39,0,0,0,.46.76c.6.77,1.21,1.54,1.83,2.28l-.77-.28c-.93-.29-2.34-.66-4.21-1.08l-5.17-1.14a2.65,2.65,0,0,1,1.14-1m8.58,7.49a50.43,50.43,0,0,1,6,1.74c.64.57,1.3,1.13,2,1.68a29.76,29.76,0,0,0,3.08,2.2,34.56,34.56,0,0,0,13.54,4.76,59.9,59.9,0,0,0,7.19.62c1.1,0,2.33.07,3.72.07a46.3,46.3,0,0,0-4,5.71,36.92,36.92,0,0,0-2.94,7.22l-2.34-.33q-3.92-.48-10.87-.79c-5.17-.23-8.79-.44-10.88-.64a65.5,65.5,0,0,1-10.77-1.84,36.37,36.37,0,0,1-10-4.25,14.41,14.41,0,0,1-3-2.4,17.52,17.52,0,0,1-2.17-3.13c-.78-1.28-1.34-2.25-1.68-2.92a14.31,14.31,0,0,1-1.17-3.15c-.12-.57-.21-1-.28-1.28a3.9,3.9,0,0,0-.49-1.2,3.83,3.83,0,0,0-1.43-1.2,13.52,13.52,0,0,0-1.83-.69,58.37,58.37,0,0,1-12.8-5.79l-4.46-3a10.14,10.14,0,0,1-2.1-2.13,6.65,6.65,0,0,1-1.09-3.8,6,6,0,0,1,.08-1,3.24,3.24,0,0,0,.71,1,3.43,3.43,0,0,0,1.12.6c.27.11.68.25,1.22.42a1.25,1.25,0,0,0,.77.19l.13,0,.38.54a21.64,21.64,0,0,0,4,3.67,14.76,14.76,0,0,0,9.15,2.78.48.48,0,0,0,.29-.22c.15-.26,0-.53-.29-.8a7.19,7.19,0,0,1-2.65-2.82l.38.28a11.93,11.93,0,0,0,2.27,1.29c.78.36,1.74.74,2.86,1.13a178.07,178.07,0,0,0,21.93,6.16q5.82,1.24,6.33,1.38m76.83-27a30.31,30.31,0,0,0,3.19.89c1,.23,1.85.38,2.5.46l.17.05c.61.11,1.18.18,1.71.23a1.13,1.13,0,0,0,.85-.17.88.88,0,0,0,.26-.69c0-.37,0-.64,0-.8a2,2,0,0,1,.88-1.27,6,6,0,0,1,3.91-1,32.36,32.36,0,0,1-3.49,3.84q-2.26,2.14-4.65,4.14l-.07,0c-.26-.16-.74-.43-1.43-.79q-3.12-1.55-4.69-2.28c-.94-.44-1.67-.76-2.2-.94l-.25-.08a4,4,0,0,0,1.07-.45,5.51,5.51,0,0,0,1.38-1.4c.28.12.56.24.86.35m-1.17,9.33a4.72,4.72,0,0,1,.63.82q-2.64,1.84-5.4,3.54l-.58-.37a12.33,12.33,0,0,1-2-1.67,7.84,7.84,0,0,1-1.48-2.19,5.13,5.13,0,0,1-.46-2.54,5,5,0,0,1,.63-2,42.7,42.7,0,0,1,6.36,2.93c.86.48,1.64,1,2.34,1.45M195.51,88.6c.08.09.29.38.62.85a4.47,4.47,0,0,0,.66.82,2.55,2.55,0,0,0,.48.37l-2.73,1.56c-.41.24-.82.48-1.24.71,0-.39,0-.79-.05-1.21,0-1.66,0-3.52,0-5.56a11.41,11.41,0,0,0,.88,1.14l1.34,1.32M183.68,74.4l1.41.26a4.79,4.79,0,0,0,1.42.08,12,12,0,0,0,.64,4.84,7.31,7.31,0,0,1-.59-.76,5.66,5.66,0,0,0-1.5-1.38c-.8-.45-1.39-.8-1.78-1a11.53,11.53,0,0,1-2.6-2.09,11.83,11.83,0,0,1,3,.1m-1.43,34.3a17.57,17.57,0,0,1,5.33.49,7.61,7.61,0,0,1,1,.33,13.17,13.17,0,0,1,3.6,2.27c.89.74,1.54,1.31,2,1.71a1,1,0,0,0,.49.3.3.3,0,0,1-.05.21l-.18.23v.05q-4.21,1.72-7.65,3.54a52,52,0,0,0-15.2,11.61,15.65,15.65,0,0,1,1.43-8.6c.36-.8.75-1.59,1.15-2.35a40.94,40.94,0,0,1,8.1-9.79m31.67-8.39a33.9,33.9,0,0,1,3.61,3.12,16.11,16.11,0,0,1,1.9,2.29q-5,1.45-12.41,4L203.26,111a1.42,1.42,0,0,0-.22-.13,8.17,8.17,0,0,1-2.07-2.06q-1.53-1.91-3.47-4.5a26.51,26.51,0,0,1-2.93-4.79c2.48-1.77,5-3.5,7.47-5.22l.21-.13,1.22-.87a106.92,106.92,0,0,1,10.45,7.06m-7.82,16.1c.62-.23,1.24-.44,1.86-.64q4.17-1.36,10.79-3.11l0,.28c0,.08-.1.35-.25.83a27.32,27.32,0,0,1-1.45,3l-.21.39L215,118.45q-3.93,2.94-4.82,3.52a5.05,5.05,0,0,0-.5.35c-.38-.89-.81-1.79-1.28-2.7a11,11,0,0,0-2.32-3.21M201,118.32v0a14.64,14.64,0,0,1,4.59,6l.13.29-.26.13c-1.32.72-2.64,1.38-4,2a60.35,60.35,0,0,0-17.85,12.85c-.29.33-.58.66-.89,1a23,23,0,0,0-1.71,2.16l-.69-.65a14.87,14.87,0,0,1-.51-3.25,13.48,13.48,0,0,1,1.32-6.83,15.56,15.56,0,0,1,3.8-4.82,32.6,32.6,0,0,1,5.11-3.62,78.89,78.89,0,0,1,10.93-5.3M68.14,90.21a9.11,9.11,0,0,1-2.86-1.48A7.27,7.27,0,0,0,67,88.5,15.48,15.48,0,0,0,69,87.67a1.6,1.6,0,0,0,.49-.36.41.41,0,0,0,.09-.56.7.7,0,0,0-.3-.18l-.4-.11a1,1,0,0,1-.67-.51l.15,0c.61,0,1.2-.11,1.77-.2a1.08,1.08,0,0,0,0,.71,1.37,1.37,0,0,0,.37.63,4.46,4.46,0,0,0,1.26.7l1,.4a2.17,2.17,0,0,0,1.12.18A.76.76,0,0,0,74.2,88a.44.44,0,0,0,0-.53l1.2-.43,1.91,2.31a7,7,0,0,1,.66,1,3.19,3.19,0,0,0-.94-.06,9.81,9.81,0,0,0-1.2.13,24.23,24.23,0,0,1-6.48,0,6.78,6.78,0,0,1-1.16-.21m14.6,7c1.3.51,3,1.21,5,2.07A8.79,8.79,0,0,1,90,100.6a4.59,4.59,0,0,0,.76.6c-1,.3-1.88.57-2.73.8a7.62,7.62,0,0,1-1.58.28,11,11,0,0,1-1.89-.16,16.52,16.52,0,0,1-2.65-.63,9.24,9.24,0,0,1-2-1q-.68-.43-1.83-1.35a34.63,34.63,0,0,1-3.48-3l-.91-.92a6.13,6.13,0,0,0-.64-.57c.26,0,.56.08.9.11a39,39,0,0,1,8.76,2.47m122.72,33.53,1.41-.86a15.62,15.62,0,0,1,.09,2.47,10.28,10.28,0,0,1-1.12,4.88,26.43,26.43,0,0,1-4,4.87,38.65,38.65,0,0,1-6.88,4.94q-3.47,1.89-5.69,3.19c-1.23-1.22-2.48-2.39-3.77-3.52l.73-1.07c.65-.77,1.3-1.55,1.92-2.34A40.16,40.16,0,0,1,205.46,130.78Z"/></g><text class="cls-2" transform="translate(0.94 287.04)">GREENWOOD APP</text></g></g></svg>