<svg xmlns="http://www.w3.org/2000/svg" width="32" height="24" viewBox="0 0 32 24">
  <defs>
    <style>
      .cls-1 {
        fill: #e2eaf0;
      }
    </style>
  </defs>
  <path id="Path_19" data-name="Path 19" class="cls-1" d="M31,4H1A.945.945,0,0,0,0,5V27a.945.945,0,0,0,1,1H31a.945.945,0,0,0,1-1V5A.945.945,0,0,0,31,4ZM28.6,8.8l-12,8a1.421,1.421,0,0,1-.6.2,1.421,1.421,0,0,1-.6-.2l-12-8a1.058,1.058,0,0,1-.2-1.4,1.058,1.058,0,0,1,1.4-.2L16,14.8,27.4,7.2a.984.984,0,0,1,1.4.3A.948.948,0,0,1,28.6,8.8Z" transform="translate(0 -4)"/>
</svg>
